<?xml version="1.0" encoding="UTF-8" standalone="no"?>
<!-- Uploaded to: SVG Repo, www.svgrepo.com, Transformed by: SVG Repo Mixer Tools -->

<svg
   width="666.66669"
   height="666.66669"
   viewBox="0 0 20.000001 20.000001"
   fill="none"
   version="1.1"
   id="svg1461"
   sodipodi:docname="Done.svg"
   inkscape:version="1.1.2 (0a00cf5339, 2022-02-04)"
   xmlns:inkscape="http://www.inkscape.org/namespaces/inkscape"
   xmlns:sodipodi="http://sodipodi.sourceforge.net/DTD/sodipodi-0.dtd"
   xmlns="http://www.w3.org/2000/svg"
   xmlns:svg="http://www.w3.org/2000/svg">
  <defs
     id="defs1465" />
  <sodipodi:namedview
     id="namedview1463"
     pagecolor="#ffffff"
     bordercolor="#666666"
     borderopacity="1.0"
     inkscape:pageshadow="2"
     inkscape:pageopacity="0.0"
     inkscape:pagecheckerboard="0"
     showgrid="false"
     inkscape:zoom="0.86875"
     inkscape:cx="333.81295"
     inkscape:cy="333.23741"
     inkscape:window-width="1920"
     inkscape:window-height="1007"
     inkscape:window-x="0"
     inkscape:window-y="0"
     inkscape:window-maximized="1"
     inkscape:current-layer="svg1461" />
  <g
     id="SVGRepo_bgCarrier"
     stroke-width="0"
     transform="translate(-2,-2)" />
  <g
     id="SVGRepo_tracerCarrier"
     stroke-linecap="round"
     stroke-linejoin="round"
     transform="translate(-2,-2)" />
  <g
     id="SVGRepo_iconCarrier"
     transform="translate(-2,-2)">
    <path
       d="M 12,2 C 6.49,2 2,6.49 2,12 2,17.51 6.49,22 12,22 17.51,22 22,17.51 22,12 22,6.49 17.51,2 12,2 Z m 4.78,7.7 -5.67,5.67 c -0.14,0.14 -0.33,0.22 -0.53,0.22 -0.2,0 -0.39,-0.08 -0.53,-0.22 L 7.22,12.54 c -0.29,-0.29 -0.29,-0.77 0,-1.06 0.29,-0.29 0.77,-0.29 1.06,0 l 2.3,2.3 5.14,-5.14 c 0.29,-0.29 0.77,-0.29 1.06,0 0.29,0.29 0.29,0.76 0,1.06 z"
       fill="#5e6bd3"
       id="path1458" />
  </g>
</svg>
