<!DOCTYPE svg PUBLIC "-//W3C//DTD SVG 1.1//EN" "http://www.w3.org/Graphics/SVG/1.1/DTD/svg11.dtd">
<!-- Uploaded to: SVG Repo, www.svgrepo.com, Transformed by: SVG Repo Mixer Tools -->
<svg width="800px" height="800px" viewBox="0 0 20.00 20.00" xmlns="http://www.w3.org/2000/svg" fill="#f2da91" transform="matrix(-1, 0, 0, 1, 0, 0)">
<g id="SVGRepo_bgCarrier" stroke-width="0"/>
<g id="SVGRepo_tracerCarrier" stroke-linecap="round" stroke-linejoin="round" stroke="#CCCCCC" stroke-width="0.08"/>
<g id="SVGRepo_iconCarrier"> <g id="half-sun" transform="translate(-2 -2)"> <path id="secondary" fill="#ffffff" d="M12,3a9,9,0,1,0,9,9A9,9,0,0,0,12,3Zm0,14A5,5,0,0,1,12,7Z"/> <path id="primary" d="M12,7V17A5,5,0,0,1,12,7Zm0-4a9,9,0,1,0,9,9A9,9,0,0,0,12,3Z" fill="none" stroke="#f2da91" stroke-linecap="round" stroke-linejoin="round" stroke-width="2"/> </g> </g>
</svg>